<mxfile host="app.diagrams.net" agent="Mozilla/5.0 (Windows NT 10.0; Win64; x64) AppleWebKit/537.36 (KHTML, like Gecko) Chrome/138.0.0.0 Safari/537.36" version="28.0.6">
  <diagram name="Page-1" id="jO6NGmC_snZTJSHUfyaC">
    <mxGraphModel dx="1426" dy="783" grid="1" gridSize="10" guides="1" tooltips="1" connect="1" arrows="1" fold="1" page="1" pageScale="1" pageWidth="850" pageHeight="1100" math="0" shadow="0">
      <root>
        <mxCell id="0" />
        <mxCell id="1" parent="0" />
        <mxCell id="IzuPZg_WpuA0A9nUFMuE-1" value="&lt;b&gt;&lt;font style=&quot;font-size: 14px;&quot;&gt;POND1&lt;/font&gt;&lt;/b&gt;&lt;div&gt;&lt;font style=&quot;color: rgb(0, 153, 0); font-size: 14px;&quot;&gt;94 m3&lt;/font&gt;&lt;/div&gt;&lt;div&gt;&lt;font style=&quot;font-size: 14px;&quot;&gt;d=10m, h=1.2m&lt;/font&gt;&lt;/div&gt;" style="rounded=1;whiteSpace=wrap;html=1;" vertex="1" parent="1">
          <mxGeometry x="180" y="150" width="130" height="90" as="geometry" />
        </mxCell>
        <mxCell id="IzuPZg_WpuA0A9nUFMuE-2" value="&lt;b&gt;&lt;font style=&quot;font-size: 14px;&quot;&gt;POND2&lt;/font&gt;&lt;/b&gt;&lt;div&gt;&lt;font style=&quot;color: rgb(0, 153, 0); font-size: 14px;&quot;&gt;94 m3&lt;/font&gt;&lt;/div&gt;&lt;div&gt;&lt;font style=&quot;font-size: 14px;&quot;&gt;d=10m, h=1.2m&lt;/font&gt;&lt;/div&gt;" style="rounded=1;whiteSpace=wrap;html=1;" vertex="1" parent="1">
          <mxGeometry x="340" y="150" width="130" height="90" as="geometry" />
        </mxCell>
        <mxCell id="IzuPZg_WpuA0A9nUFMuE-3" value="&lt;b&gt;&lt;font style=&quot;font-size: 14px;&quot;&gt;POND9&lt;/font&gt;&lt;/b&gt;&lt;div&gt;&lt;font style=&quot;color: rgb(0, 153, 0); font-size: 14px;&quot;&gt;94 m3&lt;/font&gt;&lt;/div&gt;&lt;div&gt;&lt;font style=&quot;font-size: 14px;&quot;&gt;d=10m, h=1.2m&lt;/font&gt;&lt;/div&gt;" style="rounded=1;whiteSpace=wrap;html=1;" vertex="1" parent="1">
          <mxGeometry x="180" y="270" width="130" height="90" as="geometry" />
        </mxCell>
        <mxCell id="IzuPZg_WpuA0A9nUFMuE-4" value="&lt;b&gt;&lt;font style=&quot;font-size: 14px;&quot;&gt;POND10&lt;/font&gt;&lt;/b&gt;&lt;div&gt;&lt;font style=&quot;color: rgb(0, 153, 0); font-size: 14px;&quot;&gt;94 m3&lt;/font&gt;&lt;/div&gt;&lt;div&gt;&lt;font style=&quot;font-size: 14px;&quot;&gt;d=10m, h=1.2m&lt;/font&gt;&lt;/div&gt;" style="rounded=1;whiteSpace=wrap;html=1;" vertex="1" parent="1">
          <mxGeometry x="340" y="270" width="130" height="90" as="geometry" />
        </mxCell>
      </root>
    </mxGraphModel>
  </diagram>
</mxfile>
